<?xml version="1.0" encoding="utf-8"?>
<!-- Generator: Adobe Illustrator 16.0.3, SVG Export Plug-In . SVG Version: 6.00 Build 0)  -->
<!DOCTYPE svg PUBLIC "-//W3C//DTD SVG 1.1//EN" "http://www.w3.org/Graphics/SVG/1.1/DTD/svg11.dtd">
<svg version="1.1" id="Layer_1" xmlns="http://www.w3.org/2000/svg" xmlns:xlink="http://www.w3.org/1999/xlink" x="0px" y="0px"
	 width="200px" height="200.001px" viewBox="0 0 200 200.001" enable-background="new 0 0 200 200.001" xml:space="preserve">
<g>
	<path fill-rule="evenodd" clip-rule="evenodd" fill="#FFFFFF" d="M162.372,130.43c-3.448-0.926-6.623-1.605-9.638-2.711
		c-0.674-0.248-1.127-1.986-1.131-3.043c-0.075-15.087-0.058-30.176-0.061-45.267c-0.001-12.196,0-24.392,0-36.882
		c-0.99-0.054-1.883-0.148-2.776-0.148c-17.605-0.009-35.21,0.042-52.815-0.058c-2.537-0.015-3.419,0.657-3.345,3.29
		c0.178,6.421,0.066,12.854,0.054,19.281c-0.012,5.556-3.248,8.782-8.881,8.808c-6.521,0.031-13.04,0.079-19.562-0.03
		c-2.161-0.038-2.915,0.603-2.911,2.846c0.062,28.316,0.067,56.633-0.008,84.953c-0.007,2.449,0.934,2.932,3.124,2.921
		c15.184-0.069,30.367,0.011,45.55-0.083c2.546-0.014,3.937,0.444,4.153,3.367c0.181,2.435,1.12,4.812,1.812,7.558
		c-1.472,0.077-2.648,0.186-3.822,0.188c-16.394,0.011-32.79,0.009-49.184,0.009c-8.243,0-11.704-3.105-12.554-11.25
		c-0.028-0.263-0.146-0.516-0.22-0.774c-1.489-0.248-2.973-0.357-4.375-0.755c-4.788-1.35-7.305-4.688-7.305-9.584
		c-0.006-31.949,0.016-63.9-0.036-95.85c-0.004-2.91,0.944-5.236,2.956-7.244c9.23-9.213,18.462-18.421,27.653-27.674
		c1.963-1.975,4.169-2.816,6.982-2.807c21.519,0.071,43.039,0.167,64.554-0.057c4.969-0.049,9.604,4.355,9.597,9.205
		c-0.001,1.816,0.439,2.6,2.479,2.727c6.024,0.373,9.848,4.597,9.85,10.661c0.022,28.503,0.014,57.006,0.011,85.511
		C162.521,128.434,162.433,129.328,162.372,130.43z M85.43,46.649c-6.482,6.501-12.875,12.91-19.366,19.42
		c5.877,0,11.874,0.055,17.869-0.1c0.519-0.014,1.414-1.396,1.432-2.153C85.483,58.066,85.43,52.313,85.43,46.649z M49.313,151.897
		c0.311-0.016,0.625-0.029,0.938-0.046c0.043-0.792,0.121-1.586,0.121-2.378c0.007-25.24,0.026-50.484-0.01-75.729
		c-0.004-4.425,0.077-8.75,3.932-12.086c-5.044-0.547-5.238-0.454-5.238,2.739c-0.009,28.318-0.007,56.636,0.005,84.955
		C49.062,150.2,49.226,151.049,49.313,151.897z M73.098,34.714c-6.288,6.28-12.713,12.697-18.866,18.845
		c8.103,2.944,11.738-4.096,16.776-8.53C74.695,41.789,72.448,37.829,73.098,34.714z M139.354,31.138
		c0-0.275-0.001-0.551-0.001-0.825c-0.75-0.076-1.5-0.227-2.248-0.227c-17.962-0.013-35.925,0.021-53.884-0.049
		c-2.178-0.008-3.163,0.627-2.862,2.861c0.095,0.694,0.078,1.403,0.139,2.656c3.212-3.919,7.139-4.325,11.372-4.296
		c14.889,0.103,29.778,0.041,44.671,0.033C137.477,31.292,138.416,31.193,139.354,31.138z"/>
	<path fill-rule="evenodd" clip-rule="evenodd" fill="#FFFFFF" d="M174.836,160.474c0.964,13.324-11.296,27.893-27.741,27.852
		c-16.057-0.038-27.825-14.226-27.788-28.017c0.034-12.534,10.4-27.852,27.955-27.81
		C164.524,132.546,175.807,147.573,174.836,160.474z M136.92,163.748c0,0.004,0,0.012,0,0.016c1.303,0,2.615,0.105,3.904-0.021
		c2.315-0.229,3.2,0.754,3.115,3.031c-0.101,2.691,0.005,5.394-0.013,8.089c-0.014,2.271,0.856,3.951,3.307,3.914
		c2.463-0.038,3.225-1.784,3.202-4.027c-0.027-2.789,0.034-5.578,0-8.369c-0.021-1.837,0.685-2.712,2.649-2.641
		c2.88,0.107,5.767,0.052,8.648,0.009c2.272-0.033,3.807-1.021,3.744-3.496c-0.059-2.333-1.595-3.215-3.717-3.244
		c-2.885-0.042-5.771-0.097-8.646,0.008c-1.941,0.071-2.703-0.748-2.678-2.611c0.038-2.789-0.025-5.581,0.005-8.372
		c0.021-2.229-0.706-3.888-3.175-4.085c-2.052-0.164-3.278,1.417-3.329,4.191c-0.047,2.695-0.064,5.392-0.014,8.087
		c0.037,1.962-0.677,2.886-2.788,2.795c-2.969-0.127-5.952-0.098-8.925,0.012c-2.027,0.074-3.334,1.172-3.343,3.329
		c-0.01,2.156,1.281,3.223,3.313,3.365C133.753,163.836,135.341,163.748,136.92,163.748z"/>
	<path fill-rule="evenodd" clip-rule="evenodd" fill="#FFFFFF" d="M107.496,116.267c10.433,0,20.865-0.009,31.297,0.005
		c3.123,0.004,3.37,0.321,3.363,3.907c-0.012,3.529-0.243,3.813-3.46,3.813c-20.957,0.011-41.916-0.058-62.872,0.071
		c-3.261,0.021-3.247-1.61-3.295-3.979c-0.046-2.508,0.248-3.938,3.393-3.887C86.445,116.379,96.972,116.267,107.496,116.267z"/>
	<path fill-rule="evenodd" clip-rule="evenodd" fill="#FFFFFF" d="M107.496,101.735c10.433,0,20.865-0.012,31.297,0.004
		c3.126,0.004,3.376,0.325,3.363,3.905c-0.014,3.535-0.243,3.814-3.456,3.814c-20.958,0.009-41.916-0.06-62.875,0.072
		c-3.258,0.019-3.25-1.609-3.296-3.981c-0.046-2.507,0.244-3.938,3.39-3.884C86.441,101.844,96.972,101.735,107.496,101.735z"/>
	<path fill-rule="evenodd" clip-rule="evenodd" fill="#FFFFFF" d="M107.523,87.216c10.328,0,20.655-0.007,30.984,0.003
		c3.417,0.007,3.662,0.29,3.649,3.913c-0.014,3.491-0.252,3.776-3.507,3.776c-20.935,0.01-41.87,0.02-62.806-0.044
		c-1.045-0.004-2.927-0.601-2.988-1.104c-0.252-1.965-0.068-4.027,0.314-5.981c0.071-0.357,1.829-0.538,2.812-0.54
		C86.495,87.203,97.008,87.216,107.523,87.216z"/>
	<path fill-rule="evenodd" clip-rule="evenodd" fill="#FFFFFF" d="M131.492,131.191c-3.374,2.653-6.092,4.857-8.9,6.936
		c-0.524,0.388-1.422,0.366-2.146,0.367c-14.992,0.021-29.984-0.054-44.976,0.066c-3.361,0.027-2.818-2.049-2.893-4.065
		c-0.076-2.118-0.066-3.749,2.949-3.73c17.69,0.11,35.383,0.049,53.075,0.063C129.3,130.828,129.997,130.998,131.492,131.191z"/>
</g>
</svg>
