<?xml version="1.0" encoding="utf-8"?>
<!-- Generator: Adobe Illustrator 16.0.3, SVG Export Plug-In . SVG Version: 6.00 Build 0)  -->
<!DOCTYPE svg PUBLIC "-//W3C//DTD SVG 1.1//EN" "http://www.w3.org/Graphics/SVG/1.1/DTD/svg11.dtd">
<svg version="1.1" id="Layer_1" xmlns="http://www.w3.org/2000/svg" xmlns:xlink="http://www.w3.org/1999/xlink" x="0px" y="0px"
	 width="200px" height="200.001px" viewBox="0 0 200 200.001" enable-background="new 0 0 200 200.001" xml:space="preserve">
<g>
	<path fill-rule="evenodd" clip-rule="evenodd" fill="#FFFFFF" d="M52.21,64.903c0,7.355,0,14.275,0,21.196
		c0,23.019,0.041,46.039-0.054,69.06c-0.011,2.744,0.729,3.64,3.561,3.629c26.296-0.102,52.593-0.029,78.888-0.109
		c2.338-0.006,3.825,0.546,4.594,2.856c0.639,1.909,1.453,3.769,2.299,5.6c0.975,2.117,0.083,2.828-1.934,2.837
		c-0.675,0.007-1.35,0.021-2.023,0.021c-27.934,0.003-55.868-0.111-83.8,0.078c-7.449,0.049-13.052-4.145-12.977-12.911
		c0.268-31.688,0.141-63.376,0.062-95.067c-0.01-4.031,1.241-7.202,4.12-10.03c9.138-8.978,18.187-18.05,27.181-27.167
		c2.601-2.639,5.493-3.834,9.243-3.817c21.19,0.107,42.384,0.241,63.57-0.057c6.915-0.096,11.926,4.144,11.94,11.695
		c0.024,14.542,0.021,29.086,0.022,43.633c0.002,3.659,0,7.317-0.027,10.979c-0.009,1.014-0.103,2.026-0.188,3.56
		c-0.95-0.652-1.501-0.933-1.937-1.339c-1.329-1.256-2.413-2.935-3.957-3.768c-4.613-2.486-5.541-6.178-5.403-11.172
		c0.36-13.09,0.062-26.198,0.173-39.297c0.023-2.535-0.725-3.295-3.271-3.281c-18.108,0.098-36.216,0.095-54.324,0
		c-2.508-0.012-3.379,0.678-3.312,3.257c0.165,6.351,0.063,12.714,0.054,19.069c-0.012,7.009-3.369,10.438-10.45,10.522
		c-6.163,0.076-12.329,0.021-18.495,0.023C54.719,64.903,53.671,64.903,52.21,64.903z M56.688,56.981
		c6.015,0,12.142,0.048,18.262-0.077c0.606-0.012,1.693-1.083,1.707-1.685c0.125-6.12,0.077-12.247,0.077-18.291
		C70.014,43.652,63.396,50.269,56.688,56.981z"/>
	<path fill-rule="evenodd" clip-rule="evenodd" fill="#FFFFFF" d="M139.861,143.247c-4.821,1.51-9.551,3.762-14.484,4.377
		c-13.116,1.631-23.732-3.537-30.878-14.46c-12.27-18.755-4.221-42.156,16.708-49.882c18.485-6.824,39.803,5.417,43.441,25.036
		c2.52,13.597-2.097,24.533-12.755,33.099c-0.744,0.599-1.425,1.273-2.136,1.914C139.758,143.328,139.861,143.247,139.861,143.247z
		 M94.415,114.915c-0.066,15.076,12.393,27.564,27.56,27.628c15.325,0.063,27.627-12.412,27.685-28.087
		c0.057-14.887-12.376-27.338-27.411-27.456C106.875,86.883,94.481,99.313,94.415,114.915z"/>
	<path fill-rule="evenodd" clip-rule="evenodd" fill="#FFFFFF" d="M142.712,148.056c5.323-2.511,7.984-1.748,11.14,3.13
		c5.841,9.035,11.721,18.047,17.548,27.091c1.938,3.015,1.545,6.732-0.817,8.981c-2.45,2.337-5.982,2.734-8.72,0.769
		c-1.055-0.759-1.926-1.878-2.651-2.981c-5.842-8.918-11.658-17.854-17.421-26.825c-2.386-3.709-2.084-6.098,1.001-10.231
		C142.794,147.988,142.712,148.056,142.712,148.056z"/>
	<path fill-rule="evenodd" clip-rule="evenodd" fill="#FFFFFF" d="M107.163,79.249c-3.492,2.442-6.67,4.711-9.914,6.885
		c-0.499,0.332-1.289,0.326-1.945,0.326c-9.536,0.003-19.074-0.137-28.607,0.032c-3.11,0.057-3.15-1.597-3.13-3.797
		c0.023-2.154-0.024-3.84,3.113-3.817c13.097,0.097,26.193-0.066,39.29-0.118C106.222,78.76,106.475,78.959,107.163,79.249z"/>
	<path fill-rule="evenodd" clip-rule="evenodd" fill="#FFFFFF" d="M90.356,93.947c-1.299,2.571-2.229,4.666-3.413,6.607
		c-0.348,0.565-1.417,0.968-2.16,0.972c-6.247,0.043-12.495-0.091-18.741-0.016c-2.232,0.025-2.695-1.215-2.45-2.906
		c0.237-1.638-1.278-4.481,1.747-4.572C73.479,93.783,81.631,93.947,90.356,93.947z"/>
	<path fill-rule="evenodd" clip-rule="evenodd" fill="#FFFFFF" d="M86.429,131.502c-7.351,0-14.155,0.046-20.956-0.075
		c-0.614-0.012-1.563-1.008-1.735-1.7c-0.293-1.179-0.363-2.564-0.001-3.694c0.261-0.806,1.37-1.875,2.127-1.897
		c5.571-0.158,11.148-0.138,16.723-0.022c0.729,0.015,1.821,0.708,2.091,1.357C85.399,127.21,85.763,129.101,86.429,131.502z"/>
	<path fill-rule="evenodd" clip-rule="evenodd" fill="#FFFFFF" d="M83.797,108.971c0.204,0.474,0.335,0.643,0.346,0.817
		c0.382,6.643,0.31,6.718-6.255,6.718c-3.747,0-7.499-0.133-11.233,0.049c-2.478,0.122-3.303-0.899-3.121-3.179
		c0.067-0.858-0.222-1.851,0.115-2.559c0.36-0.75,1.26-1.75,1.942-1.767C71.625,108.914,77.666,108.971,83.797,108.971z"/>
	<path fill-rule="evenodd" clip-rule="evenodd" fill="#FFFFFF" d="M139.861,143.247c0,0-0.104,0.081-0.104,0.084
		c1.434-0.931,2.77-2.18,4.343-2.672c0.966-0.303,2.816,0.218,3.315,0.989c0.479,0.74,0.112,2.605-0.564,3.393
		c-1.082,1.258-2.728,2.034-4.136,3.015c-0.004,0,0.078-0.067,0.075-0.067c-1.071,0.626-2.088,1.603-3.228,1.78
		c-1.126,0.178-3.101-0.133-3.4-0.809c-0.432-0.97,0-2.674,0.655-3.674C137.433,144.346,138.816,143.907,139.861,143.247z"/>
	<path fill-rule="evenodd" clip-rule="evenodd" fill="#FFFFFF" d="M98.066,115.123c-0.165-5.693,1.472-10.815,5.032-15.259
		c0.615-0.767,1.594-1.354,2.523-1.71c0.39-0.147,1.584,0.547,1.57,0.821c-0.047,1.056-0.136,2.329-0.742,3.098
		c-3.247,4.128-4.604,8.739-4.409,13.968c0.327,8.996,7.581,17.193,16.539,18.452c1.428,0.201,2.909,0.19,4.27,0.599
		c0.851,0.256,1.521,1.117,2.271,1.703c-0.863,0.724-1.854,2.17-2.574,2.047c-3.931-0.667-8.061-1.137-11.627-2.762
		C102.955,132.445,97.829,123.549,98.066,115.123z"/>
</g>
</svg>
