<?xml version="1.0" encoding="utf-8"?>
<!-- Generator: Adobe Illustrator 16.0.3, SVG Export Plug-In . SVG Version: 6.00 Build 0)  -->
<!DOCTYPE svg PUBLIC "-//W3C//DTD SVG 1.1//EN" "http://www.w3.org/Graphics/SVG/1.1/DTD/svg11.dtd">
<svg version="1.1" id="Layer_1" xmlns="http://www.w3.org/2000/svg" xmlns:xlink="http://www.w3.org/1999/xlink" x="0px" y="0px"
	 width="200px" height="200.001px" viewBox="0 0 200 200.001" enable-background="new 0 0 200 200.001" xml:space="preserve">
<g>
	<path fill-rule="evenodd" clip-rule="evenodd" fill="#FFFFFF" d="M40.997,68.82c-0.069,1.112-0.139,1.732-0.139,2.353
		c-0.002,32.067,0.004,64.136,0.013,96.204c0.001,4.167,0.017,4.175,4.206,4.175c31.329,0.002,62.659-0.048,93.989,0.074
		c3.275,0.012,4.075-0.974,4.034-4.126c-0.171-12.972-0.077-25.952-0.068-38.925c0.004-3.845,3.481-8.851,6.947-10.39
		c1.68-0.747,3.199-1.857,5.063-2.969c0.173,0.9,0.412,1.566,0.412,2.237c0.019,17.826,0.033,35.653-0.004,53.479
		c-0.01,4.434-1.286,8.456-5.309,10.826c-1.725,1.02-3.935,1.704-5.926,1.711c-34.916,0.104-69.833,0.088-104.748,0.06
		c-6.007-0.004-10.766-4.718-10.985-10.802c-0.106-2.95-0.029-5.907-0.029-8.86c-0.001-32.701,0.04-65.403-0.049-98.104
		c-0.013-4.415,1.346-7.889,4.499-10.989C42.914,44.943,52.82,35.009,62.672,25.02c2.848-2.884,6.013-4.202,10.119-4.18
		c23.313,0.118,46.627,0.224,69.937-0.054c6.326-0.075,12.191,3.602,12.67,11.549c0.18,2.941,0.174,5.91-0.018,8.851
		c-0.063,0.977-0.83,2.583-1.515,2.724c-4.157,0.851-6.359,3.895-8.624,6.973c-0.343,0.467-0.893,0.778-1.873,1.61
		c-0.147-1.489-0.317-2.445-0.324-3.406c-0.029-4.535-0.066-9.07,0.009-13.607c0.032-1.899-0.69-2.617-2.6-2.613
		c-20.464,0.04-40.929,0.047-61.394-0.008c-2.197-0.005-2.643,1.01-2.627,2.917c0.059,7.172,0.032,14.348,0.019,21.519
		c-0.015,7.661-3.717,11.426-11.465,11.506c-6.856,0.074-13.714,0.021-20.572,0.021C43.375,68.82,42.335,68.82,40.997,68.82z
		 M45.465,60.163c6.734,0,13.159-0.057,19.583,0.031c2.113,0.027,2.755-0.848,2.72-2.835c-0.083-4.638-0.025-9.278-0.024-13.917
		c0-1.801,0-3.604,0-5.562C60.161,45.461,52.955,52.673,45.465,60.163z"/>
	<path fill-rule="evenodd" clip-rule="evenodd" fill="#FFFFFF" d="M156.544,58.671c0.695-0.515,1.536-0.91,2.057-1.563
		c1.802-2.263,3.942-2.879,6.71-2.007c4.294,1.35,7.686,3.891,10.319,7.458c1.651,2.233,1.795,4.431,0.134,6.963
		c-8.607,13.132-17.077,26.354-25.578,39.555c-1.124,1.748-2.225,3.208-4.742,2.943c-0.754-0.08-1.842,1.115-2.457,1.961
		c-6.945,9.535-13.638,19.269-20.806,28.637c-3.887,5.074-8.43,9.671-14.772,11.954c-1.046,0.376-1.587,2-2.624,2.586
		c-0.956,0.542-2.555,0.972-3.338,0.521c-0.796-0.458-1.455-2.135-1.282-3.125c0.479-2.788,1.514-5.477,2.156-8.247
		c1.968-8.501,6.421-15.739,11.365-22.75c4.855-6.888,9.748-13.757,14.471-20.735c0.673-0.997,0.421-2.587,0.71-3.876
		c0.3-1.339,0.396-2.895,1.163-3.925c6.464-8.721,13.063-17.342,19.619-25.997c0.678-0.89,1.325-1.807,1.987-2.71
		c-0.268-0.305-0.537-0.607-0.803-0.91c-0.746,0.623-1.637,1.138-2.217,1.889c-5.796,7.508-11.539,15.057-17.307,22.59
		c-0.512,0.668-0.965,1.648-1.639,1.86c-1.141,0.355-2.833,0.707-3.555,0.134c-0.731-0.58-1-2.42-0.684-3.467
		c0.409-1.333,1.577-2.452,2.472-3.62c7.941-10.382,15.886-20.756,23.853-31.118c1.305-1.698,2.561-4.277,5.205-2.274
		c2.514,1.901,0.834,3.892-0.604,5.671c-0.186,0.227-0.246,0.555-0.364,0.835C156.176,58.156,156.361,58.412,156.544,58.671z"/>
	<path fill-rule="evenodd" clip-rule="evenodd" fill="#FFFFFF" d="M121.019,101.138c-1.723,2.448-3.115,4.673-4.785,6.661
		c-0.556,0.66-1.829,0.999-2.777,1.003c-19.084,0.056-38.169-0.004-57.255,0.088c-3.26,0.015-2.898-2.082-2.839-4.025
		c0.054-1.827-0.754-4.231,2.611-4.222c21.194,0.047,42.389,0.031,63.582,0.049C119.844,100.691,120.132,100.86,121.019,101.138z"/>
	<path fill-rule="evenodd" clip-rule="evenodd" fill="#FFFFFF" d="M119.04,84.57c-0.296,1.432-0.856,2.685-0.741,3.872
		c0.317,3.262-1.019,4.04-4.162,4.02c-18.985-0.145-37.976-0.055-56.964-0.122c-1.195-0.004-3.336-0.573-3.416-1.116
		c-0.31-2.111-0.029-4.327,0.229-6.479c0.029-0.257,1.282-0.519,1.969-0.519c20.78-0.019,41.563-0.007,62.344,0.016
		C118.485,84.242,118.675,84.401,119.04,84.57z"/>
	<path fill-rule="evenodd" clip-rule="evenodd" fill="#FFFFFF" d="M109.539,117.446c-1.765,2.581-3.172,4.897-4.876,6.971
		c-0.526,0.641-1.872,0.847-2.842,0.85c-15.157,0.054-30.316-0.027-45.475,0.091c-3.117,0.025-3.127-1.802-2.998-3.875
		c0.119-1.904-0.803-4.412,2.775-4.396c17.264,0.074,34.527,0.033,51.789,0.046C108.218,117.132,108.522,117.244,109.539,117.446z"
		/>
	<path fill-rule="evenodd" clip-rule="evenodd" fill="#FFFFFF" d="M54.394,155.519c0.119-6.078,5.475-9.505,10.982-7
		c0.758,0.345,1.666,0.704,2.118,1.333c2.997,4.168,6.035,4.598,10.621,1.76c4.639-2.872,10.049-1.654,14.911,0.399
		c1.059,0.447,2.243,2.424,2.089,3.517c-0.272,1.944-2.161,2.439-3.999,1.798c-5.57-1.944-10.638-1.203-15.603,2.075
		c-3.558,2.352-5.269,1.816-8.225-1.405c-1.065-1.159-2.019-2.47-3.246-3.424c-2.063-1.595-3.303-0.922-4.064,1.543
		c-0.382,1.239-1.218,2.806-2.27,3.271C55.654,160.289,54.333,158.594,54.394,155.519z"/>
	<path fill-rule="evenodd" clip-rule="evenodd" fill="#FFFFFF" d="M61.716,146.247c-2.252-1.583-4.328-2.705-5.889-4.322
		c-0.539-0.557-0.196-2.667,0.467-3.466c0.502-0.608,2.504-0.755,3.223-0.244c1.696,1.205,2.813,1.034,4.465-0.094
		c0.808-0.554,2.876-0.42,3.503,0.234c0.671,0.701,0.88,2.938,0.297,3.532C66.188,143.509,64.076,144.62,61.716,146.247z"/>
</g>
</svg>
