<?xml version="1.0" encoding="utf-8"?>
<!-- Generator: Adobe Illustrator 16.0.3, SVG Export Plug-In . SVG Version: 6.00 Build 0)  -->
<!DOCTYPE svg PUBLIC "-//W3C//DTD SVG 1.1//EN" "http://www.w3.org/Graphics/SVG/1.1/DTD/svg11.dtd">
<svg version="1.1" id="Layer_1" xmlns="http://www.w3.org/2000/svg" xmlns:xlink="http://www.w3.org/1999/xlink" x="0px" y="0px"
	 width="200px" height="200px" viewBox="0 0 200 200" enable-background="new 0 0 200 200" xml:space="preserve">
<g>
	<path fill-rule="evenodd" clip-rule="evenodd" fill="#FFFFFF" d="M76.209,76.564c-3.99,0-8.407,0-13.562,0
		c1.34-2.818,2.255-5.096,3.507-7.168c0.382-0.628,1.685-0.92,2.589-0.972c2.386-0.131,4.789-0.16,7.177-0.026
		c7.823,0.44,15.384-0.231,22.712-3.492c5.958-2.647,12.126-1.034,18.201,0.28c5.819,1.258,11.709,2.187,17.515,3.493
		c1.124,0.254,2.411,1.387,2.934,2.451c5.229,10.638,10.315,21.344,15.438,32.032c0.515,1.078,0.862,2.262,1.516,3.243
		c2.331,3.505,3.031,6.903,0.393,10.679c-0.568,0.813-0.288,2.71,0.27,3.747c3.924,7.286,1.256,14.35-6.555,17.398
		c-1.161,0.453-2.462,1.693-2.828,2.845c-1.561,4.942-4.846,7.575-9.846,8.399c-0.835,0.136-1.977,0.539-2.327,1.179
		c-4.422,8.052-8.813,9.578-16.912,5.563c-2.332,3.225-5.363,5.97-9.556,5.304c-3.743-0.594-6.443-0.576-9.471,2.467
		c-2.937,2.948-9.334,1.425-11.113-5.903c-2.92,1.924-5.998,2.628-9.145,0.799c-3.201-1.861-4.273-4.792-3.875-8.368
		c-7.502,2.362-12.652-1.336-12.4-8.729c-2.478,0-5.158,0.615-7.388-0.126c-5.011-1.671-6.666-7.614-3.731-12.098
		c1.252-1.911,2.622-3.761,4.063-5.536c1.08-1.332,0.995-2.407-0.095-3.67c-1.624-1.883-2.924-4.095-4.741-5.75
		c-2.544-2.323-2.295-4.547-0.602-7.074c0.531-0.789,0.983-1.632,1.782-2.969c3.177,3.908,5.949,7.495,8.947,10.886
		c0.765,0.862,2.253,1.541,3.401,1.528c4.88-0.044,8.766,3.325,8.695,8.227c-0.041,2.718,0.786,3.672,3.566,3.707
		c3.44,0.042,6.139,2.54,7.01,6.315c0.525,2.269,1.572,3.117,3.85,3.217c3.614,0.161,5.911,2.112,7.412,5.514
		c0.764,1.734,2.551,3.081,4.044,4.411c1.583,1.415,3.378,2.583,5.058,3.888c1.923,1.496,3.586,3.753,6.51,2.345
		c2.229-1.074,2.345-2.51,0.343-3.961c-3.629-2.634-7.387-5.102-10.868-7.914c-0.946-0.763-1.508-2.527-1.462-3.806
		c0.029-0.777,1.535-2.073,2.42-2.108c1.247-0.051,2.688,0.624,3.775,1.378c4.999,3.461,9.9,7.061,14.842,10.601
		c0.971,0.695,1.931,1.42,2.958,2.018c2.032,1.184,4.022,1.281,5.591-0.751c1.396-1.809,0.845-4.073-1.372-5.676
		c-5.007-3.62-10.056-7.179-15.084-10.769c-1.54-1.102-3.079-2.202-4.591-3.339c-1.727-1.297-3.055-2.891-1.548-5.031
		c1.592-2.263,3.597-1.576,5.479-0.229c7.212,5.16,14.422,10.328,21.63,15.495c0.405,0.288,0.793,0.606,1.199,0.893
		c2.436,1.714,5.039,1.561,6.355-0.366c1.303-1.905,0.725-4.123-1.715-5.878c-7.278-5.24-14.6-10.421-21.896-15.634
		c-1.377-0.983-2.756-1.971-4.086-3.016c-1.658-1.305-2.599-2.94-1.166-4.884c1.42-1.927,3.278-1.614,5.016-0.38
		c6.091,4.324,12.156,8.688,18.232,13.039c2.997,2.144,5.968,4.326,9,6.42c2.604,1.798,5.542,1.508,7.26-0.597
		c1.644-2.012,1.255-5.122-1.105-7.19c-11.762-10.293-23.57-20.54-35.352-30.813c-1.202-1.049-2.518-2.026-3.489-3.263
		c-2.337-2.972-5.479-3.522-8.819-2.898c-3.502,0.656-5.163,3.093-5.949,6.608c-1.416,6.342-5.676,10.524-11.688,12.516
		c-2.27,0.75-5.164,0.536-7.53-0.122c-4.021-1.112-4.817-3.669-3.463-7.618c0.929-2.717,1.477-5.567,2.093-8.38
		C74.521,85.014,75.287,81.067,76.209,76.564z"/>
	<path fill-rule="evenodd" clip-rule="evenodd" fill="#FFFFFF" d="M49.625,53.419c2.516,1.164,4.31,1.968,6.085,2.815
		c8.503,4.066,9.448,4.554,4.976,13.47c-6.511,12.979-12.582,26.177-18.879,39.264c-1.772,3.678-3.88,4.389-7.472,2.636
		c-2.591-1.267-5.204-2.506-7.701-3.94c-2.668-1.535-3.239-3.67-1.964-6.317c6.95-14.427,13.849-28.879,20.917-43.249
		C46.456,56.328,48.226,55.001,49.625,53.419z"/>
	<path fill-rule="evenodd" clip-rule="evenodd" fill="#FFFFFF" d="M152.584,53.414c1.377,1.355,3.174,2.427,3.952,4.003
		c6.123,12.396,12.054,24.891,18.04,37.354c0.945,1.974,1.823,3.979,2.824,5.921c1.773,3.439,1.208,5.501-2.225,7.345
		c-2.278,1.223-4.6,2.362-6.928,3.487c-3.826,1.854-5.792,1.189-7.668-2.691c-4.891-10.121-9.732-20.264-14.594-30.398
		c-2.064-4.305-4.165-8.594-6.188-12.92c-1.514-3.229-0.872-5.271,2.273-6.923C145.312,56.891,148.637,55.349,152.584,53.414z"/>
</g>
</svg>
