<?xml version="1.0" encoding="utf-8"?>
<!-- Generator: Adobe Illustrator 16.0.3, SVG Export Plug-In . SVG Version: 6.00 Build 0)  -->
<!DOCTYPE svg PUBLIC "-//W3C//DTD SVG 1.1//EN" "http://www.w3.org/Graphics/SVG/1.1/DTD/svg11.dtd">
<svg version="1.1" id="Layer_1" xmlns="http://www.w3.org/2000/svg" xmlns:xlink="http://www.w3.org/1999/xlink" x="0px" y="0px"
	 width="200px" height="200px" viewBox="0 0 200 200" enable-background="new 0 0 200 200" xml:space="preserve">
<g>
	<path fill-rule="evenodd" clip-rule="evenodd" fill="#FFFFFF" d="M140.978,96.865c-0.254,3.437-1.406,4.796-4.459,4.684
		c-5.548-0.203-11.109,0.019-16.662-0.108c-2.336-0.052-3.221,0.811-3.112,3.104c0.115,2.44,0.115,4.892,0.007,7.334
		c-0.106,2.354,0.943,3.083,3.197,3.036c5.333-0.108,10.675,0.111,16.002-0.087c3.191-0.12,4.776,1.127,5.115,4.691
		c-1.273,0.145-2.515,0.4-3.757,0.408c-5.667,0.041-11.338,0.094-17.003-0.024c-2.511-0.053-3.854,0.729-3.54,3.41
		c0.396,3.374-1.616,5.274-4.778,7.474c0-3.865,0-7.17,0-10.854c-6.796,0-12.986-0.086-19.173,0.035
		c-3.157,0.06-4.713-1.32-5.094-4.841c1.259-0.087,2.401-0.229,3.545-0.232c5.89-0.026,11.779-0.06,17.671,0.01
		c1.957,0.022,2.871-0.622,2.793-2.688c-0.102-2.663-0.099-5.337,0.003-8c0.072-1.954-0.528-2.781-2.655-2.739
		c-6.773,0.138-13.552,0.158-20.326,0.067c-1.952-0.024-2.557,0.675-2.492,2.51c0.09,2.63,0.023,5.268,0.023,8.499
		c-3.286-1.695-5.107-3.441-5.104-6.794c0.005-4.318-0.106-4.293-4.505-4.277c-5.886,0.023-11.775,0.105-17.659-0.051
		c-2.667-0.07-3.727,0.931-3.382,3.501c0.449,3.336-0.706,5.776-4.621,7.576c0-2.991-0.107-5.562,0.034-8.12
		c0.116-2.13-0.56-2.962-2.812-2.928c-7.108,0.108-14.221,0.076-21.33-0.01c-2.045-0.025-2.793,0.766-2.721,2.752
		c0.094,2.553,0.128,5.119-0.01,7.666c-0.13,2.366,0.866,3.088,3.14,3.049c6.11-0.108,12.224-0.046,18.339-0.026
		c1.182,0.005,2.362,0.122,3.669,0.193c-0.058,3.501-1.582,4.91-4.741,4.878c-6.645-0.069-13.289-0.021-20.351-0.021
		c0,3.806,0.013,7.327-0.007,10.846c-0.01,2.143,1.456,2.143,2.978,2.14c5.668-0.007,11.336-0.012,17.005,0.005
		c3.954,0.012,4.038,0.094,5.313,4.527c-1.287,0.197-2.515,0.537-3.745,0.549c-6.111,0.056-12.226,0.109-18.337-0.014
		c-2.469-0.049-3.438,0.826-3.265,3.294c0.149,2.101,0.14,4.228,0.002,6.329c-0.154,2.38,0.619,3.409,3.184,3.359
		c6.888-0.135,13.781-0.119,20.671-0.006c2.393,0.037,3.143-0.918,3.013-3.169c-0.131-2.301-0.029-4.613-0.029-7.405
		c3.22,1.48,5.077,3.181,4.607,6.456c-0.459,3.2,0.8,4.283,4.051,4.149c5.77-0.243,11.56-0.217,17.332-0.011
		c3.089,0.112,4.618-0.688,4.231-4.035c-0.38-3.271,1.825-4.869,5.044-6.874c0,3.049,0.11,5.422-0.029,7.781
		c-0.138,2.321,0.755,3.154,3.079,3.105c5.333-0.118,10.675,0.121,16-0.092c3.367-0.133,4.464,1.608,4.982,4.911
		c-1.543,0.104-2.908,0.277-4.275,0.277c-25.894,0.017-51.792,0.076-77.686-0.065c-3.454-0.02-4.362,1.083-4.293,4.377
		c0.163,7.828,0.02,7.829,7.835,7.829c45.457,0,90.912,0,136.367,0c5.409,0,5.552-0.102,5.513-5.316
		c-0.058-7.799,0.965-6.732-6.648-6.801c-5.113-0.046-10.227,0.003-15.337-0.02c-1.057-0.004-2.113-0.132-3.364-0.216
		c0.448-3.228,1.398-5.085,4.828-4.971c5.771,0.19,11.556-0.046,17.333,0.093c2.514,0.061,3.216-0.892,3.242-3.311
		c0.111-9.625,0.183-9.625-9.568-9.635c-3.557-0.003-7.121-0.134-10.669,0.043c-3.198,0.157-4.687-1.273-5.046-4.744
		c1.367-0.142,2.621-0.373,3.874-0.383c6.003-0.039,12.006-0.129,18.003,0.03c2.675,0.072,3.698-0.906,3.36-3.479
		c-0.374-2.857,0.964-4.857,2.638-7.139c2.418-3.295,3.956-7.237,6.086-11.316c0.168,1.234,0.441,2.33,0.443,3.427
		c0.023,17.004,0.048,34.007-0.017,51.012c-0.026,6.385-4.342,10.655-10.729,10.658c-48.791,0.026-97.58,0.028-146.371,0
		c-6.427-0.003-10.749-4.211-10.759-10.627c-0.051-38.118-0.046-76.24,0-114.358c0.007-5.754,3.505-9.751,9.162-10.35
		c3.96-0.421,7.978-0.303,11.968-0.396c1.863-0.043,2.941,0.705,2.771,2.779c-0.103,1.215-0.079,2.445-0.009,3.665
		c0.112,1.918-0.878,2.533-2.63,2.519c-3.112-0.026-6.224,0.05-9.333,0.033c-1.961-0.01-2.798,0.909-2.795,2.855
		c0.02,14.004,0.023,28.008-0.012,42.011c-0.004,1.812,0.655,2.714,2.539,2.603c0.996-0.059,1.999-0.007,3-0.007
		c35.676,0,71.353,0,107.027,0C138.062,96.865,139.364,96.865,140.978,96.865z"/>
	<path fill-rule="evenodd" clip-rule="evenodd" fill="#FFFFFF" d="M182.298,106.452c-0.634-1.356-0.873-1.916-1.148-2.46
		c-1.772-3.503-3.61-6.979-5.308-10.519c-0.82-1.709-1.944-3.53-1.973-5.315c-0.177-11.543-0.185-23.093-0.032-34.638
		c0.043-3.231-1.047-4.344-4.234-4.175c-4.098,0.215-8.215-0.013-12.32,0.09c-1.353,0.033-2.695,0.506-4.041,0.776
		c0.383,1.413,0.509,2.971,1.205,4.209c1.385,2.465,1.542,4.825,0.182,7.261c-1.9,3.403-5.863,4.687-9.131,3.02
		c-3.567-1.823-4.846-6.053-3.211-9.72c0.775-1.741,1.342-3.714,1.412-5.604c0.192-5.101,0.035-10.212,0.091-15.317
		c0.015-1.2,0.118-2.475,0.545-3.574c0.866-2.235,2.842-3.596,4.988-2.708c1.517,0.627,2.931,2.484,3.517,4.109
		c0.603,1.67,0.236,3.731,0.127,5.612c-0.128,2.205,0.883,2.893,2.971,2.913c6.098,0.059,12.207,0.044,18.284,0.471
		c4.725,0.331,8.571,4.296,8.612,9.078c0.154,18.095,0.053,36.191,0.029,54.286C182.86,104.667,182.655,105.083,182.298,106.452z"/>
	<path fill-rule="evenodd" clip-rule="evenodd" fill="#FFFFFF" d="M177.181,108.296c0.066,9.272-7.549,17.041-16.807,17.149
		c-9.138,0.104-17.174-7.677-17.297-16.75c-0.129-9.398,7.643-17.45,16.891-17.501C169.363,91.143,177.112,98.84,177.181,108.296z
		 M157.953,111.746c-1.868-2.378-3.396-4.514-5.155-6.442c-0.505-0.555-1.67-0.512-2.533-0.742
		c-0.034,0.903-0.446,2.059-0.039,2.664c1.971,2.939,4.063,5.815,6.357,8.506c0.466,0.546,2.527,0.656,2.938,0.179
		c3.754-4.351,7.332-8.854,10.87-13.383c0.338-0.434,0.285-1.801-0.01-1.963c-0.634-0.347-1.837-0.548-2.288-0.177
		c-1.615,1.329-3.097,2.849-4.48,4.429C161.747,106.948,160.019,109.203,157.953,111.746z"/>
	<path fill-rule="evenodd" clip-rule="evenodd" fill="#FFFFFF" d="M51.671,126.527c-0.019-9.621,7.186-16.979,16.649-17.006
		c9.768-0.026,17.284,7.252,17.307,16.76c0.026,9.474-7.638,17.196-17.054,17.19C59.216,143.464,51.688,135.918,51.671,126.527z
		 M66.263,129.732c-1.678-2.186-3.053-4.187-4.671-5.969c-0.61-0.673-1.778-0.838-2.691-1.235c-0.003,1.093-0.42,2.441,0.065,3.232
		c1.566,2.542,3.427,4.909,5.247,7.287c1.925,2.517,2.732,2.359,4.731-0.257c2.754-3.604,5.762-7.017,8.484-10.646
		c0.727-0.967,0.812-2.416,1.191-3.644c-1.229,0.394-2.831,0.427-3.621,1.244C72.092,122.759,69.454,126.033,66.263,129.732z"/>
	<path fill-rule="evenodd" clip-rule="evenodd" fill="#FFFFFF" d="M129.487,127.526c9.587,0.021,16.883,7.487,16.83,17.225
		c-0.049,9.309-7.658,16.766-17.074,16.735c-9.48-0.029-16.951-7.688-16.884-17.31C112.425,134.842,119.971,127.506,129.487,127.526
		z M127.112,147.869c-1.777-2.287-3.216-4.352-4.903-6.188c-0.581-0.633-1.782-0.697-2.701-1.022
		c-0.049,0.919-0.489,2.098-0.079,2.713c1.967,2.952,4.061,5.837,6.361,8.533c0.455,0.534,2.543,0.59,2.974,0.089
		c3.606-4.196,7.04-8.547,10.414-12.937c0.423-0.548,0.192-1.602,0.263-2.419c-0.902,0.031-2.057-0.277-2.655,0.166
		c-1.319,0.973-2.423,2.272-3.499,3.538C131.298,142.678,129.389,145.084,127.112,147.869z"/>
	<path fill-rule="evenodd" clip-rule="evenodd" fill="#FFFFFF" d="M95.874,49.399c-1.889,0-3.778-0.024-5.667,0.005
		c-3.459,0.053-4.252,1.359-2.347,4.263c1.985,3.025,2.4,5.936,0.12,8.914c-2.317,3.025-6.121,3.722-9.186,1.756
		c-3.067-1.971-4.035-6.092-2.496-9.444c0.752-1.635,1.323-3.501,1.379-5.279c0.177-5.662-0.149-11.347,0.224-16.988
		c0.107-1.643,1.585-3.762,3.04-4.563c1.104-0.61,3.454,0.12,4.712,1.013c0.899,0.639,1.216,2.52,1.264,3.866
		c0.256,7.457,0.2,7.459,7.785,7.435c1.554-0.005,3.109,0.005,4.665,0.008c5.617,0.008,6.926,1.651,5.47,7.259
		c-0.188,0.727-1.461,1.561-2.306,1.65c-2.197,0.233-4.436,0.079-6.657,0.079C95.874,49.379,95.874,49.389,95.874,49.399z"/>
	<path fill-rule="evenodd" clip-rule="evenodd" fill="#FFFFFF" d="M120.21,40.38c5.166,0,9.814,0.15,14.448-0.046
		c3.789-0.161,3.597,2.174,3.632,4.766c0.034,2.63-0.18,4.588-3.663,4.345c-3.422-0.234-6.871-0.056-10.31-0.046
		c-4.472,0.014-4.934,1.106-3.08,5.098c0.855,1.841,1.102,4.344,0.655,6.328c-0.804,3.568-5.105,5.448-8.517,4.236
		c-3.77-1.34-6.344-5.852-4.374-9.027c2.383-3.848,1.964-7.796,2.009-11.83c0.041-3.883,0.046-7.762,0.002-11.645
		c-0.035-2.918,1.329-4.654,4.212-4.97c2.568-0.282,4.771,1.789,4.953,4.71C120.335,34.827,120.21,37.371,120.21,40.38z"/>
	<path fill-rule="evenodd" clip-rule="evenodd" fill="#FFFFFF" d="M54.122,40.38c4.951,0,9.267-0.012,13.581,0.001
		c4.368,0.014,4.526,0.18,4.531,4.452c0.005,4.487-0.041,4.544-4.349,4.563c-3.326,0.015-6.651-0.012-9.978,0.007
		c-3.97,0.022-4.433,1.242-2.877,4.87c0.876,2.045,1.208,4.772,0.64,6.883c-0.971,3.612-5.277,5.156-8.674,3.735
		c-3.76-1.576-5.971-5.997-3.913-9.218c2.044-3.198,1.905-6.451,1.914-9.845c0.013-4.436,0.042-8.872-0.007-13.306
		c-0.033-2.937,1.359-4.725,4.237-4.91c2.949-0.19,4.549,1.727,4.835,4.429C54.335,34.653,54.122,37.315,54.122,40.38z"/>
	<path fill-rule="evenodd" clip-rule="evenodd" fill="#FFFFFF" d="M87.744,137.724c0.335-3.668,1.831-4.975,5.067-4.854
		c5.73,0.21,11.478,0.059,17.395,0.059c-0.295,3.414-1.358,5.232-4.721,5.136c-4.886-0.14-9.777-0.021-14.666-0.048
		C89.864,138.011,88.912,137.84,87.744,137.724z"/>
	<path fill-rule="evenodd" clip-rule="evenodd" fill="#FFFFFF" d="M96.333,82.28c0.089-1.628-0.128-3.163,0.345-4.444
		c0.337-0.912,1.536-1.927,2.468-2.058c0.641-0.091,2.066,1.209,2.131,1.976c0.252,2.938,0.273,5.928-0.017,8.86
		c-0.089,0.894-1.461,1.662-2.242,2.485c-0.799-0.806-1.99-1.483-2.304-2.446C96.255,85.237,96.422,83.619,96.333,82.28z"/>
	<path fill-rule="evenodd" clip-rule="evenodd" fill="#FFFFFF" d="M41.065,82.444c-0.22,1.51-0.262,3.206-0.771,4.745
		c-0.256,0.775-1.352,1.736-2.084,1.751c-0.709,0.014-2.012-1.038-2.059-1.694c-0.238-3.292-0.262-6.614-0.071-9.906
		c0.034-0.616,1.396-1.604,2.142-1.602c0.744,0,1.907,0.899,2.139,1.642C40.849,78.928,40.846,80.635,41.065,82.444z"/>
	<path fill-rule="evenodd" clip-rule="evenodd" fill="#FFFFFF" d="M70.925,82.398c0,1.324,0.268,2.727-0.084,3.951
		c-0.289,1.005-1.314,1.799-2.012,2.688c-0.817-0.742-2.277-1.435-2.338-2.235c-0.242-3.156-0.16-6.354,0.086-9.515
		c0.047-0.604,1.509-1.664,2.074-1.526c0.857,0.21,1.941,1.185,2.141,2.021c0.348,1.462,0.099,3.068,0.099,4.614
		C70.9,82.396,70.913,82.396,70.925,82.398z"/>
	<path fill-rule="evenodd" clip-rule="evenodd" fill="#FFFFFF" d="M127.163,82.109c0-1.539-0.22-3.128,0.094-4.602
		c0.156-0.732,1.262-1.695,1.992-1.744c0.711-0.048,2.091,0.891,2.141,1.481c0.256,3.157,0.351,6.353,0.117,9.508
		c-0.061,0.812-1.508,1.52-2.316,2.275c-0.709-0.873-1.775-1.649-2.038-2.64c-0.352-1.341-0.087-2.844-0.087-4.278
		C127.098,82.11,127.131,82.11,127.163,82.109z"/>
	<path fill-rule="evenodd" clip-rule="evenodd" fill="#FFFFFF" d="M162.369,81.629c-0.55,1.96,1.319,5.313-3.007,5.12
		c-0.526-0.022-1.16-0.092-1.551-0.393c-1.439-1.107-0.881-9.295,0.711-10.287c1.857-1.155,2.993-0.079,3.49,1.573
		C162.384,78.877,162.266,80.257,162.369,81.629z"/>
	<path fill-rule="evenodd" clip-rule="evenodd" fill="#FFFFFF" d="M142.924,121.843c2.939,2.004,4.978,4.247,3.743,8.096
		C142.634,128.793,141.649,126.715,142.924,121.843z"/>
</g>
</svg>
