<?xml version="1.0" encoding="utf-8"?>
<!-- Generator: Adobe Illustrator 16.0.3, SVG Export Plug-In . SVG Version: 6.00 Build 0)  -->
<!DOCTYPE svg PUBLIC "-//W3C//DTD SVG 1.1//EN" "http://www.w3.org/Graphics/SVG/1.1/DTD/svg11.dtd">
<svg version="1.1" id="Layer_1" xmlns="http://www.w3.org/2000/svg" xmlns:xlink="http://www.w3.org/1999/xlink" x="0px" y="0px"
	 width="200px" height="200.001px" viewBox="0 0 200 200.001" enable-background="new 0 0 200 200.001" xml:space="preserve">
<g>
	<path fill-rule="evenodd" clip-rule="evenodd" fill="#FFFFFF" d="M126.714,20.102c0.224,0.107,0.434,0.249,0.666,0.314
		c4.175,1.154,6.745,4.424,6.872,8.772c0.021,0.75,0.003,1.5,0.003,2.423c8.39-0.576,13.079,2.85,12.634,11.607
		c1.698,0.176,3.308,0.163,4.822,0.535c4.161,1.017,6.775,4.31,6.891,8.572c0.078,2.943,0.047,5.891-0.016,8.834
		c-0.008,0.371-0.46,0.999-0.786,1.058c-2.68,0.477-4.6,1.994-6.127,4.151c-0.689,0.974-1.46,1.891-2.418,3.122
		c0-5.655,0-10.966,0-16.388c-19.171,0-38.189,0-57.391,0c0,0.462,0,0.936,0,1.407c0,6.872,0.003,13.742,0,20.614
		c-0.002,4.814-3.091,7.928-7.938,7.943c-6.826,0.022-13.652,0.007-20.479,0.007c-0.524,0-1.049,0-1.672,0
		c0,29.298,0,58.45,0,87.708c29.059,0,58.124,0,87.413,0c0-0.435,0-0.904,0-1.373c-0.002-11.913,0.009-23.826-0.03-35.738
		c-0.003-1.223,0.222-2.264,1.014-3.199c0.43-0.507,0.796-1.072,1.154-1.636c0.937-1.473,1.938-2.711,3.844-3.173
		c1.206-0.292,2.233-1.326,3.464-2.105c0,1.809,0,3.618,0,5.428c-0.002,14.01-0.063,28.02,0.022,42.029
		c0.029,4.932-3.729,9.473-9.54,9.47c-29.225-0.007-58.45,0.019-87.675-0.022c-5.405-0.007-8.999-4.191-9.176-8.552
		c-0.042-1.015-0.006-2.032-0.006-3.237c-3.394,0.273-6.501-0.176-9.003-2.535c-2.551-2.401-3.065-5.5-2.729-8.949
		c-1.162,0-2.131-0.008-3.102,0c-5.8,0.05-9.601-4.491-9.589-9.559c0.066-30.205,0.045-60.412,0.014-90.618
		c-0.004-3.124,1.021-5.65,3.261-7.859c7.466-7.362,14.837-14.82,22.269-22.218c2.648-2.639,4.986-5.697,8.807-6.834
		C83.697,20.102,105.206,20.102,126.714,20.102z M40.468,147.544c0-0.459,0-0.763,0-1.067c-0.003-20.428-0.009-40.855-0.004-61.283
		c0.001-6.109,0.004-12.22,0.072-18.328c0.024-2.032,0.916-3.773,2.282-5.264c0.494-0.538,1.014-1.053,1.671-1.731
		c-2.532,0-4.775,0-7.083,0c0,29.271,0,58.452,0,87.674C38.427,147.544,39.354,147.544,40.468,147.544z M52.248,159.053
		c0-0.462,0-0.768,0-1.076c-0.001-16.722-0.001-33.447-0.003-50.171c-0.001-9.275,0.013-18.552-0.021-27.828
		c-0.012-2.929,0.948-5.389,3.12-7.368c0.371-0.338,0.694-0.729,1.153-1.218c-2.327,0-4.396,0-6.504,0c0,29.277,0,58.457,0,87.661
		C50.754,159.053,51.414,159.053,52.248,159.053z M85.539,56.262c0.038,0.112,0.076,0.226,0.115,0.337
		c-6.801,6.8-13.602,13.601-20.251,20.249c6.001,0,12.37,0.001,18.737,0c1.107,0,1.415-0.616,1.409-1.643
		c-0.025-5.705-0.011-11.41-0.011-17.115C85.539,57.48,85.539,56.871,85.539,56.262z M40.561,53.554
		c3.329,0,6.568,0.024,9.807-0.033c0.406-0.007,0.869-0.39,1.197-0.709c1.631-1.582,3.23-3.196,4.831-4.81
		c1.567-1.579,3.735-2.922,4.514-4.828c0.798-1.957,0.237-4.469,0.262-6.739c0.013-1.168,0.003-2.338,0.003-3.494
		C54.271,39.843,47.48,46.633,40.561,53.554z M53.293,65.069c2.819,0,5.673,0.045,8.522-0.035c0.627-0.02,1.374-0.344,1.835-0.774
		c1.826-1.704,3.564-3.502,5.324-5.274c1.571-1.582,3.739-2.929,4.518-4.837c0.801-1.959,0.238-4.476,0.264-6.748
		c0.012-0.988,0.001-1.978,0.001-2.797C66.922,51.439,60.129,58.232,53.293,65.069z M137.335,41.297c-19.109,0-38.124,0-57.131,0
		c0,2.139,0,4.185,0,6.233c0.614-0.261,0.937-0.688,1.306-1.069c2.01-2.077,4.427-3.089,7.356-3.082
		c15.61,0.035,31.22,0.017,46.829,0.017c0.522,0,1.047,0,1.64,0C137.335,42.649,137.335,42.042,137.335,41.297z M124.774,29.787
		c-19.151,0-38.161,0-57.15,0c0,2.32,0,4.544,0,7.141c0.977-1.034,1.68-1.84,2.446-2.579c1.859-1.798,4.066-2.743,6.687-2.74
		c15.47,0.012,30.938,0.005,46.408,0.005c0.521,0,1.042,0,1.609,0C124.774,30.934,124.774,30.415,124.774,29.787z"/>
	<path fill-rule="evenodd" clip-rule="evenodd" fill="#FFFFFF" d="M159.021,74.667c0.519,0.378,1.076,0.785,1.763,1.284
		c0.485-0.637,0.96-1.158,1.323-1.749c1.184-1.937,2.912-2.399,4.964-1.801c3.806,1.108,6.9,3.261,9.125,6.566
		c1.062,1.579,1.089,3.13-0.019,4.829c-7.406,11.38-14.748,22.802-22.114,34.206c-1.348,2.086-1.818,2.233-4.115,1.282
		c-1.947,2.776-3.888,5.592-5.882,8.37c-4.208,5.859-8.343,11.776-12.705,17.521c-3.032,3.993-6.66,7.444-11.07,9.955
		c-0.533,0.303-1.225,0.329-1.844,0.483c-0.066-0.117-0.132-0.236-0.197-0.354c-0.604,0.866-1.188,1.748-1.818,2.592
		c-0.885,1.186-1.941,1.413-2.994,0.696c-1.006-0.686-1.136-1.839-0.324-3.051c0.396-0.592,0.805-1.175,1.229-1.747
		c0.357-0.485,0.673-0.873,0.031-1.46c-0.232-0.213-0.131-0.898-0.044-1.341c1.349-6.742,4.351-12.748,8.252-18.341
		c4.945-7.085,9.897-14.165,14.873-21.227c0.504-0.715,0.693-1.181-0.041-1.898c-0.929-0.911-0.604-1.885,0.137-2.858
		c6.103-8.011,12.178-16.043,18.258-24.069c0.264-0.349,0.507-0.713,0.847-1.195c-0.661-0.478-1.251-0.905-1.927-1.394
		c-2.505,3.267-4.943,6.438-7.372,9.616c-3.22,4.214-6.407,8.454-9.674,12.63c-0.446,0.572-1.251,1.141-1.92,1.177
		c-0.581,0.031-1.497-0.568-1.727-1.115c-0.251-0.596-0.139-1.646,0.254-2.167c7.684-10.166,15.428-20.289,23.173-30.412
		c0.797-1.04,2.034-1.221,2.931-0.517c0.95,0.746,1.072,1.853,0.297,2.954c-0.514,0.729-1.057,1.433-1.579,2.152
		C159.063,74.351,159.068,74.455,159.021,74.667z"/>
	<path fill-rule="evenodd" clip-rule="evenodd" fill="#FFFFFF" d="M129.602,111.003c-1.43,2.064-2.749,4.002-4.119,5.902
		c-0.16,0.221-0.609,0.328-0.926,0.328c-16.895,0.009-33.789,0-50.683-0.009c-0.083,0-0.167-0.044-0.36-0.101
		c0-1.986,0-4.007,0-6.121C92.124,111.003,110.739,111.003,129.602,111.003z"/>
	<path fill-rule="evenodd" clip-rule="evenodd" fill="#FFFFFF" d="M127.876,97.085c-0.31,2.02-0.623,4.048-0.948,6.168
		c-17.662,0-35.478,0-53.409,0c0-2.027,0-4.049,0-6.168C91.694,97.085,109.893,97.085,127.876,97.085z"/>
	<path fill-rule="evenodd" clip-rule="evenodd" fill="#FFFFFF" d="M73.459,131.03c0-2.034,0-4.026,0-6.107
		c15.437,0,30.813,0,46.344,0c-1.357,2.021-2.67,4.003-4.026,5.956c-0.134,0.192-0.533,0.279-0.81,0.279
		c-13.699,0.006-27.399,0-41.098-0.011C73.785,131.147,73.703,131.102,73.459,131.03z"/>
	<path fill-rule="evenodd" clip-rule="evenodd" fill="#FFFFFF" d="M74.021,157.487c0.092-3.735,2.346-6.516,5.404-6.664
		c2.766-0.135,4.849,1.231,6.689,3.088c0.469,0.472,0.857,1.024,1.271,1.549c0.927,1.18,1.549,1.325,2.85,0.513
		c2.204-1.374,4.466-2.571,7.095-2.897c3.315-0.411,6.455,0.333,9.512,1.497c1.058,0.403,1.437,1.541,1.05,2.561
		c-0.37,0.977-1.41,1.463-2.506,1.125c-2.781-0.857-5.587-1.637-8.504-0.847c-1.264,0.344-2.456,0.971-3.665,1.507
		c-0.443,0.198-0.835,0.508-1.253,0.762c-3.468,2.113-5.045,1.775-7.575-1.44c-0.813-1.034-1.744-2.061-2.826-2.784
		c-1.862-1.245-3.098-0.57-3.427,1.655c-0.033,0.221-0.071,0.44-0.094,0.662c-0.184,1.724-0.884,2.456-2.246,2.34
		C74.552,160.007,73.98,159.159,74.021,157.487z"/>
	<path fill-rule="evenodd" clip-rule="evenodd" fill="#FFFFFF" d="M80.006,147.918c-2.068-0.075-3.73-0.668-4.805-2.381
		c-0.643-1.026-0.465-2.214,0.385-2.877c0.883-0.69,1.921-0.543,2.838,0.403c1.064,1.099,2.136,1.064,3.121-0.097
		c0.883-1.043,1.824-1.239,2.797-0.587c0.965,0.647,1.19,1.838,0.497,2.943C83.692,147.153,81.914,147.811,80.006,147.918z"/>
</g>
</svg>
