<?xml version="1.0" encoding="utf-8"?>
<!-- Generator: Adobe Illustrator 16.0.3, SVG Export Plug-In . SVG Version: 6.00 Build 0)  -->
<!DOCTYPE svg PUBLIC "-//W3C//DTD SVG 1.1//EN" "http://www.w3.org/Graphics/SVG/1.1/DTD/svg11.dtd">
<svg version="1.1" id="Layer_1" xmlns="http://www.w3.org/2000/svg" xmlns:xlink="http://www.w3.org/1999/xlink" x="0px" y="0px"
	 width="200px" height="200px" viewBox="0 0 200 200" enable-background="new 0 0 200 200" xml:space="preserve">
<g>
	<path fill-rule="evenodd" clip-rule="evenodd" fill="#FFFFFF" d="M178.559,99.333c-0.041,16.434-1.477,28.759-7.033,40.271
		c-1.046,2.165-2.307,4.27-3.732,6.208c-4.983,6.783-10.31,8.463-18.376,5.984c-35.411-10.87-70.829-21.727-106.231-32.628
		c-5.334-1.642-10.385-1.531-14.77,2.222c-2.794,2.39-4.188,1.082-5.507-1.453C17.421,109.379,17.218,98.75,22.363,88
		c1.304-2.722,2.804-3.523,5.584-1.618c4.454,3.059,9.245,2.999,14.206,1.008c34.512-13.855,69.091-27.554,103.529-41.591
		c5.653-2.306,10.133-1.338,14.527,2.098c6.593,5.149,10.116,12.366,12.84,19.992C177.119,79.286,178.668,91.107,178.559,99.333z
		 M167.179,103.556c-0.919-7.941-1.084-14.378-2.531-20.515c-1.503-6.378-4.019-12.557-6.539-18.636
		c-1.164-2.809-3.428-5.215-7.022-5.035c-3.403,0.174-5.063,2.669-6.375,5.368c-0.887,1.823-1.636,3.732-2.253,5.666
		c-3.863,12.105-4.796,24.6-2.671,36.979c1.488,8.677,4.659,17.1,7.526,25.484c1.016,2.97,3.581,6.177,7.071,5.243
		c2.529-0.674,4.756-3.373,6.545-5.624c1.279-1.608,1.916-3.915,2.306-6.01C164.746,118.385,166.042,110.252,167.179,103.556z"/>
	<path fill-rule="evenodd" clip-rule="evenodd" fill="#FFFFFF" d="M51.13,127.975c5.27,1.709,9.421,2.848,13.374,4.473
		c1.067,0.439,2.014,2.278,2.19,3.585c0.649,4.784,3.063,7.624,7.884,8.422c1.369,0.231,2.751,0.632,4.013,1.2
		c5.291,2.379,10.014,2.251,13.987-2.597c0.532-0.652,1.885-1.217,2.631-1.01c4.241,1.183,8.413,2.614,13.942,4.389
		c-5.829,5.168-10.559,9.892-15.893,13.782c-1.754,1.281-5.244,1.043-7.651,0.406c-7.733-2.052-15.324-4.647-22.989-6.962
		c-4.026-1.217-6.527-3.788-7.46-7.875C53.898,140.266,52.659,134.741,51.13,127.975z"/>
</g>
</svg>
